<?xml version="1.0" standalone="no"?>
<!DOCTYPE svg PUBLIC "-//W3C//DTD SVG 20010904//EN"
 "http://www.w3.org/TR/2001/REC-SVG-20010904/DTD/svg10.dtd">
<svg version="1.0" xmlns="http://www.w3.org/2000/svg"
 width="512.000000pt" height="512.000000pt" viewBox="0 0 512.000000 512.000000"
 preserveAspectRatio="xMidYMid meet">
<metadata>
Created by potrace 1.14, written by Peter Selinger 2001-2017
</metadata>
<g transform="translate(0.000000,512.000000) scale(0.100000,-0.100000)"
fill="#000000" stroke="none">
<path d="M1022 3620 c-4 -3 -6 -458 -4 -1012 l2 -1008 155 0 155 0 0 410 0
410 90 0 c98 0 141 -13 177 -51 46 -51 53 -95 53 -346 0 -223 10 -351 30 -400
9 -22 13 -23 166 -23 l156 0 -6 24 c-18 73 -26 186 -26 396 0 256 -10 331 -53
417 -24 47 -106 133 -127 133 -23 0 -8 29 29 54 51 36 94 98 123 177 21 59 23
80 23 279 0 185 -3 223 -19 270 -38 110 -91 177 -176 220 -80 41 -151 49 -453
52 -159 2 -292 1 -295 -2z m519 -291 c93 -31 112 -89 107 -322 -3 -150 -6
-177 -24 -211 -32 -62 -79 -81 -194 -81 l-95 0 -3 304 c-2 237 1 306 10 313
19 12 160 10 199 -3z"/>
<path d="M3703 3623 l-343 -3 0 -1010 0 -1011 158 3 157 3 3 417 2 418 203 2
202 3 0 140 0 140 -203 3 -202 2 2 303 3 302 259 5 258 5 -1 135 c-1 74 -4
137 -7 140 -7 6 -83 7 -491 3z"/>
<path d="M2182 2613 l3 -1008 290 -3 c262 -2 297 0 369 18 43 11 97 31 120 44
59 35 120 99 148 159 45 92 53 148 52 352 0 165 -3 199 -22 259 -28 92 -80
165 -148 210 l-55 37 38 28 c87 63 127 135 149 270 32 200 -1 408 -82 504 -39
46 -90 81 -159 108 -58 23 -72 24 -383 27 l-322 3 2 -1008z m556 703 c48 -25
74 -88 80 -199 7 -121 -11 -219 -49 -261 -36 -41 -85 -56 -188 -56 l-81 0 0
263 c0 145 3 267 8 271 14 15 195 1 230 -18z m5 -820 c87 -36 111 -114 106
-345 -4 -135 -7 -161 -24 -191 -33 -57 -72 -70 -207 -70 l-118 0 0 310 0 310
105 0 c67 0 118 -5 138 -14z"/>
</g>
</svg>
